# xmcd
#
# Track frame offsets:
#	150
#	20227
#	40903
#	59690
#	80436
#	100317
#	122599
#	148389
#	172617
#	199422
#	221408
#
# Disc length: 3313 seconds
#
# Revision: 1
# Processed by: cddbd v1.5.2PL0 Copyright (c) Steve Scherf et al.
# Submitted via: EZCDAudioConverter 8.0.2.1
#
DISCID=a20cef0b
DTITLE=Quang Lê, Mai Thiên Vân - Phải Lòng Con Gái Bến Tre
DYEAR=2011
DGENRE=World Pop
TTITLE0=Quang Lê, Mai Thiên Vân - Múc ánh trăng vàng
TTITLE1=Quang Lê - Cõi nhớ
TTITLE2=Mai Thiên Vân - Chờ người
TTITLE3=Quang Lê, Mai Thiên Vân - Duyên kiếp
TTITLE4=Mai Thiên Vân - Mình chẳng nợ nhau
TTITLE5=Quang Lê - Áo cưới màu hoa cà
TTITLE6=Quang Lê, Mai Thiên Vân - Tôi yêu người, tôi xa người
TTITLE7=Mai Thiên Vân - Đau xót lý chim quyên
TTITLE8=Quang Lê, Mai Thiên Vân - Phải Lòng Con Gái Bến Tre
TTITLE9=Mai Thiên Vân - Chiều ni ngoài nớ
TTITLE10=Quang Lê, Mai Thiên Vân - Chuyện tình buồn trăm năm
EXTD=
EXTT0=
EXTT1=
EXTT2=
EXTT3=
EXTT4=
EXTT5=
EXTT6=
EXTT7=
EXTT8=
EXTT9=
EXTT10=
PLAYORDER=
